<svg xmlns="http://www.w3.org/2000/svg" width="2400" height="1093" viewBox="0 0 2400 1093" version="1.1"><path d="" stroke="none" fill="#231704" fill-rule="evenodd"/><path d="M 1187.500 128.135 L 1171.500 128.806 1161.042 130.965 L 1150.583 133.123 1139.542 136.670 L 1128.500 140.216 1112.500 147.995 L 1096.500 155.774 1088.500 161.006 L 1080.500 166.238 1073.757 171.727 L 1067.015 177.215 1067.496 177.994 L 1067.978 178.773 1066.239 180.137 L 1064.500 181.500 1065.872 179.750 L 1067.245 178 1066.325 178 L 1065.406 178 1061.683 181.813 L 1057.959 185.626 1058.730 186.473 L 1059.500 187.321 1058.428 186.711 L 1057.356 186.102 1048.864 194.801 L 1040.372 203.500 1036.870 208 L 1033.369 212.500 1027.107 221.370 L 1020.845 230.240 1015.838 239.612 L 1010.830 248.984 1007.326 257.242 L 1003.822 265.500 1000.059 277 L 996.296 288.500 995.383 291.922 L 994.470 295.343 991.985 296.089 L 989.500 296.836 979 300.065 L 968.500 303.295 961 306.237 L 953.500 309.180 936.500 317.508 L 919.500 325.836 914 329.211 L 908.500 332.585 902.756 336.320 L 897.011 340.054 891.755 344.277 L 886.499 348.500 882.681 351.353 L 878.863 354.207 866.302 365.781 L 853.741 377.355 845.120 387.796 L 836.500 398.237 829.715 408.369 L 822.930 418.500 814.517 435.500 L 806.104 452.500 802.586 462.827 L 799.068 473.154 796.545 485.327 L 794.023 497.500 793.020 506.500 L 792.016 515.500 792.014 533 L 792.012 550.500 793.512 560.500 L 795.013 570.500 797.042 580.168 L 799.072 589.837 801.894 598.168 L 804.716 606.500 807.108 611.972 L 809.500 617.443 816.566 631.472 L 823.631 645.500 830.513 655.500 L 837.395 665.500 838.190 666.500 L 838.984 667.500 843.640 673.500 L 848.296 679.500 859.398 690.857 L 870.500 702.213 880.651 710.857 L 890.803 719.500 894.151 721.764 L 897.500 724.028 902.500 727.273 L 907.500 730.517 911.500 732.923 L 915.500 735.328 919.500 737.543 L 923.500 739.758 931.500 744.271 L 939.500 748.784 948.500 752.472 L 957.500 756.160 962.994 758.830 L 968.488 761.500 969.655 768.500 L 970.823 775.500 971.979 792.500 L 973.134 809.500 972.096 827.515 L 971.057 845.530 967.989 863.515 L 964.921 881.500 961.474 895 L 958.027 908.500 955.054 918 L 952.082 927.500 949.500 934.500 L 946.918 941.500 945.563 944.500 L 944.207 947.500 941.103 955.326 L 938 963.151 938 964.529 L 938 965.906 941.750 966.969 L 945.500 968.032 952.500 969.461 L 959.500 970.891 969.500 972.042 L 979.500 973.193 980.137 973.585 L 980.773 973.978 991.637 975.459 L 1002.500 976.941 1017.500 978.501 L 1032.500 980.060 1042.500 981.045 L 1052.500 982.031 1077.500 983.506 L 1102.500 984.981 1119.500 986.080 L 1136.500 987.178 1200.500 987.217 L 1264.500 987.256 1281.500 986.117 L 1298.500 984.978 1314.500 983.997 L 1330.500 983.016 1344.500 981.975 L 1358.500 980.935 1372 979.430 L 1385.500 977.926 1398.500 976.439 L 1411.500 974.952 1418.500 973.538 L 1425.500 972.125 1435.865 970.992 L 1446.231 969.859 1453.829 967.916 L 1461.428 965.972 1462.266 965.134 L 1463.104 964.296 1461.145 959.398 L 1459.185 954.500 1456.266 947.500 L 1453.347 940.500 1452.540 938.500 L 1451.732 936.500 1448.823 928.500 L 1445.913 920.500 1442.844 910.500 L 1439.774 900.500 1436.394 885 L 1433.014 869.500 1431.067 852 L 1429.121 834.500 1428.473 820 L 1427.826 805.500 1429.453 784 L 1431.081 762.500 1432.290 761.313 L 1433.500 760.125 1442.444 756.535 L 1451.389 752.945 1463.944 746.298 L 1476.500 739.651 1480.500 737.490 L 1484.500 735.329 1490.835 731.415 L 1497.169 727.500 1500.400 725.500 L 1503.631 723.500 1512.066 717.084 L 1520.500 710.668 1528.383 703.084 L 1536.267 695.500 1543.494 688 L 1550.722 680.500 1553.717 677 L 1556.712 673.500 1563.129 665 L 1569.547 656.500 1573.023 651.040 L 1576.500 645.580 1577.718 643.540 L 1578.937 641.500 1585.382 628.500 L 1591.828 615.500 1595.402 606.585 L 1598.976 597.670 1601.471 588.514 L 1603.965 579.357 1605.386 571.929 L 1606.807 564.500 1608.046 552.500 L 1609.285 540.500 1608.669 525 L 1608.053 509.500 1606.475 499 L 1604.897 488.500 1601.874 477.142 L 1598.852 465.784 1595.503 457.007 L 1592.153 448.229 1587.252 437.865 L 1582.350 427.500 1576.550 418.145 L 1570.749 408.790 1564.678 400.645 L 1558.608 392.500 1548.554 381.076 L 1538.500 369.652 1529 361.180 L 1519.500 352.708 1514.021 348.604 L 1508.542 344.500 1496.021 336.206 L 1483.500 327.913 1468 320.386 L 1452.500 312.859 1450.696 311.887 L 1448.892 310.916 1438.196 306.338 L 1427.500 301.759 1423.681 301.239 L 1419.861 300.718 1418.469 298.594 L 1417.077 296.469 1414.534 286.913 L 1411.990 277.356 1409.072 269.428 L 1406.154 261.500 1402.954 254.500 L 1399.754 247.500 1395.272 239.500 L 1390.789 231.500 1386.655 225 L 1382.522 218.500 1375.701 209.500 L 1368.881 200.500 1362.691 193.655 L 1356.500 186.810 1349 180.576 L 1341.500 174.341 1335 169.362 L 1328.500 164.382 1318.500 158.307 L 1308.500 152.232 1301 148.725 L 1293.500 145.217 1288 142.738 L 1282.500 140.259 1271.500 136.723 L 1260.500 133.188 1250 131.010 L 1239.500 128.831 1225.500 128.387 L 1211.500 127.942 1207.500 127.703 L 1203.500 127.464 1187.500 128.135 M 1189 158.661 L 1185.500 159.003 1174.500 160.581 L 1163.500 162.159 1153.500 165.213 L 1143.500 168.267 1134.731 171.691 L 1125.963 175.116 1118.567 178.965 L 1111.171 182.815 1103.836 187.670 L 1096.500 192.526 1091 196.657 L 1085.500 200.788 1071.451 215.144 L 1057.402 229.500 1053.206 235.500 L 1049.010 241.500 1045.742 246.500 L 1042.473 251.500 1036.341 264 L 1030.209 276.500 1026.666 288 L 1023.123 299.500 1020.975 308.500 L 1018.827 317.500 1017.817 337 L 1016.808 356.500 1017.320 385.250 L 1017.833 414 1015.591 414 L 1013.349 414 1011.276 411.750 L 1009.204 409.500 1003.206 398 L 997.209 386.500 995.140 379.500 L 993.071 372.500 991.443 365 L 989.814 357.500 989.157 342.895 L 988.500 328.289 983.500 330.078 L 978.500 331.866 972 334.284 L 965.500 336.701 960.500 338.915 L 955.500 341.129 947.651 344.665 L 939.801 348.202 935.506 351.101 L 931.210 354 930.731 354 L 930.252 354 920.865 360.250 L 911.478 366.500 907.489 369.483 L 903.500 372.466 897 377.806 L 890.500 383.146 885.152 387.766 L 879.804 392.387 871.113 402.444 L 862.422 412.500 860.120 415.500 L 857.819 418.500 856.659 418.522 L 855.500 418.545 855.817 420.373 L 856.134 422.201 854.912 421.446 L 853.691 420.691 854.432 421.889 L 855.172 423.088 853.973 424.533 L 852.773 425.978 852 425.500 L 851.226 425.022 851.363 426.737 L 851.500 428.452 850.210 428.476 L 848.919 428.500 846.851 432 L 844.783 435.500 846.869 433 L 848.956 430.500 848.978 429.583 L 849 428.667 849.614 429.281 L 850.228 429.895 848.029 433.454 L 845.829 437.012 845.122 436.576 L 844.415 436.139 844.281 437.925 L 844.146 439.712 842.236 442.852 L 840.326 445.993 839.503 445.246 L 838.679 444.500 839.382 445.723 L 840.085 446.947 836.553 454.592 L 833.020 462.238 829.576 472.369 L 826.131 482.500 823.315 496.500 L 820.500 510.500 820.572 531.500 L 820.645 552.500 823.765 567 L 826.886 581.500 829.833 590.500 L 832.780 599.500 837.402 610 L 842.025 620.500 845.648 626.500 L 849.271 632.500 852.882 638 L 856.493 643.500 863.648 652.500 L 870.804 661.500 882.152 672.715 L 893.500 683.929 906 693.263 L 918.500 702.596 929.160 709.326 L 939.821 716.056 949.770 720.982 L 959.719 725.909 967.544 729.017 L 975.368 732.126 984.789 735.143 L 994.209 738.161 1006.355 741.146 L 1018.500 744.130 1034 746.763 L 1049.500 749.396 1083 749.409 L 1116.500 749.422 1126.500 747.678 L 1136.500 745.933 1147.250 743.250 L 1158 740.566 1157.963 739.533 L 1157.925 738.500 1152.213 735.043 L 1146.500 731.586 1139.500 732.028 L 1132.500 732.470 1110 732.485 L 1087.500 732.500 1074.500 731.274 L 1061.500 730.047 1055.500 728.464 L 1049.500 726.881 1041.350 725.453 L 1033.200 724.025 1024.850 721.457 L 1016.500 718.890 1012 717.506 L 1007.500 716.122 999.500 713.231 L 991.500 710.339 989.500 709.267 L 987.500 708.195 980.500 705.031 L 973.500 701.866 965.500 697.801 L 957.500 693.736 949 688.175 L 940.500 682.613 936.780 679.663 L 933.059 676.713 933.684 675.702 L 934.309 674.691 933.161 675.401 L 932.012 676.110 923.756 669.154 L 915.500 662.197 907.863 653.849 L 900.225 645.500 896.467 641 L 892.709 636.500 887.355 628.390 L 882 620.279 882 619.544 L 882 618.809 880.120 616.154 L 878.240 613.500 874.086 603.720 L 869.931 593.939 866.997 582.323 L 864.063 570.707 864.591 569.853 L 865.118 569 866.559 569 L 868 569 868.006 571.250 L 868.012 573.500 869.615 576.500 L 871.218 579.500 873.010 585.500 L 874.802 591.500 878.421 599 L 882.040 606.500 886.101 613 L 890.161 619.500 894.270 625 L 898.379 630.500 900.668 633 L 902.958 635.500 909.729 642.628 L 916.500 649.757 922.315 654.400 L 928.130 659.042 938.585 666.057 L 949.041 673.072 960.770 678.961 L 972.500 684.849 978.867 687.487 L 985.234 690.124 994.867 693.489 L 1004.500 696.854 1015 699.513 L 1025.500 702.171 1034 703.540 L 1042.500 704.909 1053.500 706.654 L 1064.500 708.400 1088.349 708.267 L 1112.198 708.135 1112.701 707.632 L 1113.204 707.129 1111.852 705.236 L 1110.500 703.343 1102.002 695.421 L 1093.504 687.500 1086.961 680 L 1080.418 672.500 1077.376 668.500 L 1074.333 664.500 1069.884 658 L 1065.434 651.500 1060.861 644 L 1056.289 636.500 1054.519 633 L 1052.749 629.500 1049.265 622.500 L 1045.782 615.500 1042.760 607 L 1039.738 598.500 1038.477 597.144 L 1037.216 595.788 1027.193 593.987 L 1017.169 592.187 1010.093 588.054 L 1003.017 583.922 997.889 578.794 L 992.762 573.667 989.537 568.583 L 986.312 563.500 984.783 559 L 983.253 554.500 982.081 550.804 L 980.909 547.107 977.875 531.304 L 974.840 515.500 972.533 502.500 L 970.226 489.500 967.620 475.500 L 965.014 461.500 964.007 455.940 L 963 450.380 963 447.640 L 963 444.901 964.460 442.077 L 965.920 439.254 968.210 438.641 L 970.500 438.027 974.027 438.014 L 977.555 438 979.770 439.551 L 981.985 441.103 983.087 443.162 L 984.189 445.221 986.113 452.361 L 988.037 459.500 990.968 469 L 993.899 478.500 996.379 487.500 L 998.858 496.500 1001.906 507 L 1004.955 517.500 1006.015 522.500 L 1007.075 527.500 1008.710 532 L 1010.344 536.500 1011.295 537.750 L 1012.245 539 1014.467 539 L 1016.690 539 1018.345 537.171 L 1020 535.343 1019.985 531.921 L 1019.970 528.500 1018.428 522 L 1016.885 515.500 1014.461 500.500 L 1012.036 485.500 1011.028 481.500 L 1010.019 477.500 1008.012 465 L 1006.005 452.500 1004.514 447 L 1003.024 441.500 1003.021 438 L 1003.017 434.500 1006.572 430.750 L 1010.126 427 1013.516 427 L 1016.906 427 1019.533 428.197 L 1022.160 429.394 1024.131 433.257 L 1026.102 437.120 1029.149 448.310 L 1032.195 459.500 1034.961 470.625 L 1037.727 481.750 1038.370 482.790 L 1039.013 483.831 1041.389 492.665 L 1043.765 501.500 1046.430 511.500 L 1049.096 521.500 1051.164 525.805 L 1053.232 530.110 1055.843 529.805 L 1058.454 529.500 1059.758 527 L 1061.063 524.500 1060.446 519 L 1059.829 513.500 1058.022 505.500 L 1056.215 497.500 1055.534 491.500 L 1054.853 485.500 1053.001 478 L 1051.150 470.500 1049.980 462.500 L 1048.809 454.500 1046.920 445.500 L 1045.031 436.500 1045.016 429.839 L 1045 423.178 1048.077 420.589 L 1051.153 418 1054.672 418 L 1058.191 418 1061.053 419.691 L 1063.915 421.381 1064.909 423.941 L 1065.903 426.500 1068.387 435 L 1070.871 443.500 1073.902 454 L 1076.933 464.500 1077.559 467.500 L 1078.185 470.500 1081.205 481 L 1084.225 491.500 1086.567 499.500 L 1088.909 507.500 1092.085 519.912 L 1095.262 532.324 1094.709 540.412 L 1094.157 548.500 1091.577 555.928 L 1088.998 563.357 1085.271 568.767 L 1081.545 574.178 1074.222 581.134 L 1066.899 588.090 1069.449 594.466 L 1072 600.841 1072 601.692 L 1072 602.542 1078.814 616.060 L 1085.628 629.578 1087.653 632.539 L 1089.677 635.500 1094.014 642 L 1098.351 648.500 1105.045 656.500 L 1111.739 664.500 1121.619 674.173 L 1131.500 683.846 1139 689.709 L 1146.500 695.572 1152.500 699.615 L 1158.500 703.659 1162.500 706.185 L 1166.500 708.711 1171.301 711.428 L 1176.103 714.145 1183.801 718.214 L 1191.500 722.283 1194.985 724.142 L 1198.470 726 1200.264 726 L 1202.057 726 1208.279 722.868 L 1214.500 719.737 1222.500 715.268 L 1230.500 710.800 1237.500 706.685 L 1244.500 702.570 1248.484 699.535 L 1252.468 696.500 1260.984 689.551 L 1269.500 682.601 1277.347 675.051 L 1285.195 667.500 1293.352 658 L 1301.510 648.500 1304.543 644.500 L 1307.576 640.500 1311.509 634.500 L 1315.443 628.500 1319.731 620.099 L 1324.019 611.699 1328.053 602.257 L 1332.087 592.815 1332.643 590.034 L 1333.199 587.254 1329.609 584.516 L 1326.019 581.777 1326.664 580.734 L 1327.309 579.691 1326.237 580.353 L 1325.165 581.016 1323.029 578.258 L 1320.893 575.500 1318.463 571.729 L 1316.032 567.958 1312.576 561.229 L 1309.119 554.500 1306.411 544 L 1303.703 533.500 1303.760 519.953 L 1303.817 506.407 1306.547 494.953 L 1309.278 483.500 1312.152 476 L 1315.026 468.500 1316.664 465.500 L 1318.302 462.500 1319.804 459.500 L 1321.307 456.500 1324.793 451.500 L 1328.279 446.500 1336.761 438.223 L 1345.242 429.947 1351.871 426.080 L 1358.500 422.213 1367.237 419.493 L 1375.975 416.772 1386.237 417.216 L 1396.500 417.660 1403.012 420.341 L 1409.524 423.022 1415.292 427.550 L 1421.061 432.077 1425.612 438.260 L 1430.164 444.443 1433.187 450.471 L 1436.210 456.500 1438.549 464.500 L 1440.889 472.500 1441.937 479 L 1442.985 485.500 1442.992 493.209 L 1443 500.917 1440.084 515.209 L 1437.167 529.500 1434.333 536.500 L 1431.499 543.500 1428.102 549.500 L 1424.705 555.500 1419.521 562.500 L 1414.337 569.500 1406.316 577 L 1398.296 584.500 1391.257 588.194 L 1384.217 591.889 1378.214 593.444 L 1372.211 595 1367.665 595 L 1363.118 595 1362.309 596.250 L 1361.500 597.500 1359.342 603 L 1357.183 608.500 1354.518 615.500 L 1351.854 622.500 1350.620 624 L 1349.387 625.500 1348.108 628.500 L 1346.830 631.500 1339.665 643.351 L 1332.500 655.201 1330.500 658.432 L 1328.500 661.664 1326 664.718 L 1323.500 667.772 1320.500 671.551 L 1317.500 675.331 1312.378 681.415 L 1307.256 687.500 1299.878 693.997 L 1292.500 700.495 1289.628 703.292 L 1286.756 706.090 1287.301 706.634 L 1287.845 707.178 1296.672 707.826 L 1305.500 708.474 1319.384 708.277 L 1333.267 708.081 1347.384 706.493 L 1361.500 704.906 1369.218 703.480 L 1376.935 702.054 1386.218 699.428 L 1395.500 696.802 1406 693.265 L 1416.500 689.729 1424 686.740 L 1431.500 683.752 1438.500 680.257 L 1445.500 676.761 1459 667.757 L 1472.500 658.753 1474.187 657.278 L 1475.874 655.804 1476.962 656.476 L 1478.050 657.149 1477.800 656.324 L 1477.551 655.500 1490.025 642.916 L 1502.500 630.331 1507.391 622.916 L 1512.281 615.500 1514.274 612.610 L 1516.267 609.720 1519.579 603.860 L 1522.891 598 1526.873 588.076 L 1530.855 578.151 1531.541 573.575 L 1532.227 569 1533.614 569 L 1535 569 1535 575.005 L 1535 581.010 1530.886 592.255 L 1526.773 603.500 1521.380 614.095 L 1515.988 624.690 1510.004 633.078 L 1504.020 641.466 1496.774 649.483 L 1489.528 657.500 1480.495 665.743 L 1471.463 673.986 1462.082 680.887 L 1452.701 687.789 1449.100 689.756 L 1445.500 691.724 1438.394 695.798 L 1431.288 699.872 1421.894 703.985 L 1412.500 708.099 1410.697 709.091 L 1408.893 710.084 1397.697 713.957 L 1386.500 717.830 1373.500 721.408 L 1360.500 724.985 1355.500 725.599 L 1350.500 726.212 1344.243 728.076 L 1337.987 729.939 1319.059 731.470 L 1300.131 733 1290.765 733 L 1281.400 733 1268.238 731.945 L 1255.076 730.889 1252.788 732.100 L 1250.500 733.312 1247.354 735.695 L 1244.208 738.079 1244.693 739.933 L 1245.177 741.786 1250.839 743.345 L 1256.500 744.904 1269.500 747.026 L 1282.500 749.147 1298.674 749.885 L 1314.847 750.624 1331.674 749.876 L 1348.500 749.129 1365.288 746.600 L 1382.077 744.070 1382.882 743.573 L 1383.688 743.075 1395.594 740.518 L 1407.500 737.961 1415.500 735.398 L 1423.500 732.834 1433 728.846 L 1442.500 724.857 1447.654 722.179 L 1452.808 719.500 1460.937 715.291 L 1469.067 711.082 1477.523 705.456 L 1485.978 699.830 1491.629 695.442 L 1497.279 691.055 1498.294 691.682 L 1499.309 692.309 1498.654 691.250 L 1497.999 690.190 1506.138 683.345 L 1514.276 676.500 1515.388 676.833 L 1516.500 677.167 1515.771 676.438 L 1515.042 675.709 1523.972 666.368 L 1532.902 657.027 1539.766 647.763 L 1546.631 638.500 1550.126 633 L 1553.622 627.500 1556.811 622.184 L 1560 616.867 1560 616.392 L 1560 615.917 1562.897 609.708 L 1565.793 603.500 1568.800 595.500 L 1571.806 587.500 1574.529 578 L 1577.252 568.500 1578.711 559 L 1580.170 549.500 1580.320 532.500 L 1580.470 515.500 1579.112 507 L 1577.753 498.500 1574.877 488.107 L 1572 477.714 1572 476.731 L 1572 475.748 1568.387 466.624 L 1564.774 457.500 1561.354 450.208 L 1557.933 442.917 1558.621 441.804 L 1559.309 440.691 1558.193 441.381 L 1557.077 442.071 1554.901 437.785 L 1552.725 433.500 1550.863 431.115 L 1549 428.730 1549 427.806 L 1549 426.882 1550.155 427.595 L 1551.309 428.309 1550.585 427.138 L 1549.862 425.967 1549.139 426.414 L 1548.416 426.861 1544.963 421.680 L 1541.509 416.500 1538.532 412.500 L 1535.555 408.500 1533.168 405.831 L 1530.782 403.163 1531.545 401.927 L 1532.309 400.691 1531.288 401.322 L 1530.267 401.953 1528.705 400.226 L 1527.143 398.500 1527.071 397.750 L 1527 397 1526.396 397.106 L 1525.792 397.212 1521.439 392.940 L 1517.087 388.669 1517.520 387.968 L 1517.953 387.267 1515.726 385.384 L 1513.500 383.500 1515.405 385.750 L 1517.310 388 1516.537 388 L 1515.765 388 1511.634 383.869 L 1507.502 379.738 1500.145 374.119 L 1492.787 368.500 1486.903 364.283 L 1481.019 360.066 1471.259 354.215 L 1461.500 348.364 1455 345.116 L 1448.500 341.868 1442.500 338.962 L 1436.500 336.056 1429.243 333.702 L 1421.986 331.348 1421.493 331.841 L 1421 332.333 1420.980 345.917 L 1420.960 359.500 1419.958 366.434 L 1418.956 373.369 1415.053 385.577 L 1411.150 397.786 1409.163 401.643 L 1407.176 405.500 1403.813 409.250 L 1400.449 413 1398.341 413 L 1396.233 413 1395.720 411.037 L 1395.207 409.074 1396.231 394.287 L 1397.256 379.500 1397.684 367.500 L 1398.113 355.500 1398.197 349 L 1398.282 342.500 1397.215 330 L 1396.149 317.500 1393.592 305.607 L 1391.035 293.714 1387.939 285.607 L 1384.844 277.500 1382.391 272 L 1379.938 266.500 1376.818 260.500 L 1373.699 254.500 1370.124 248.500 L 1366.549 242.500 1361.275 235.260 L 1356 228.019 1356 227.387 L 1356 226.755 1357.750 228.110 L 1359.500 229.466 1357.589 227.227 L 1355.679 224.988 1355.150 225.516 L 1354.622 226.045 1350.311 221.814 L 1346 217.584 1346 216.605 L 1346 215.626 1349.250 218.551 L 1352.500 221.476 1347.538 216.238 L 1342.575 211 1342.229 211 L 1341.882 211 1342.500 212 L 1343.118 213 1342.059 213 L 1341 213 1340.882 211.750 L 1340.763 210.500 1340.906 209.676 L 1341.050 208.851 1340.022 209.486 L 1338.994 210.122 1332.040 203.896 L 1325.086 197.670 1325.595 196.846 L 1326.104 196.023 1324.692 196.565 L 1323.280 197.107 1320.390 194.686 L 1317.500 192.265 1310.141 187.513 L 1302.781 182.762 1293.166 177.881 L 1283.551 173 1282.651 173 L 1281.750 173 1276.125 170.600 L 1270.500 168.199 1260.500 165.203 L 1250.500 162.207 1244 161.102 L 1237.500 159.998 1229.026 158.999 L 1220.552 158 1206.526 158.160 L 1192.500 158.320 1189 158.661 M 1185.500 762.466 L 1172.500 766.792 1157 770.326 L 1141.500 773.860 1134.500 774.978 L 1127.500 776.095 1118.500 777.566 L 1109.500 779.038 1078.500 779.179 L 1047.500 779.321 1034.500 777.151 L 1021.500 774.981 1014 773.447 L 1006.500 771.913 1003.101 771.330 L 999.702 770.746 1000.351 779.623 L 1000.999 788.500 1001.636 801.500 L 1002.273 814.500 1001.104 830 L 999.936 845.500 998.880 855 L 997.824 864.500 995.976 872.500 L 994.127 880.500 993.471 886.064 L 992.816 891.628 996.658 892.769 L 1000.500 893.909 1011.500 895.494 L 1022.500 897.079 1033.500 898.990 L 1044.500 900.902 1054.500 901.985 L 1064.500 903.069 1077.500 904.975 L 1090.500 906.881 1096.500 907.491 L 1102.500 908.102 1117 910.041 L 1131.500 911.980 1163.500 914.434 L 1195.500 916.887 1212.167 917.584 L 1228.834 918.280 1230.159 919.098 L 1231.483 919.917 1230.485 920.915 L 1229.486 921.914 1213.493 922.974 L 1197.500 924.034 1186.500 925.013 L 1175.500 925.992 1160.809 926.990 L 1146.117 927.988 1108.809 927.982 L 1071.500 927.975 1040 926.923 L 1008.500 925.871 1005 925.978 L 1001.500 926.085 993.216 924.876 L 984.932 923.668 983.912 924.688 L 982.891 925.709 980.462 934.538 L 978.033 943.366 978.398 943.731 L 978.762 944.095 985.131 944.992 L 991.500 945.889 1003 947.433 L 1014.500 948.977 1026.500 950.030 L 1038.500 951.083 1056 953.021 L 1073.500 954.960 1097.500 956.077 L 1121.500 957.194 1190.270 957.703 L 1259.040 958.212 1294.270 956.550 L 1329.500 954.889 1346.500 953.025 L 1363.500 951.160 1371 950.493 L 1378.500 949.827 1396.337 947.413 L 1414.174 945 1418.118 945 L 1422.063 945 1422.598 943.604 L 1423.134 942.208 1420.077 933.354 L 1417.020 924.500 1415.148 917.500 L 1413.276 910.500 1409.687 896.899 L 1406.099 883.299 1403.965 868.899 L 1401.832 854.500 1400.916 847 L 1400.001 839.500 1400.138 811 L 1400.276 782.500 1400.388 777 L 1400.500 771.500 1397 771.647 L 1393.500 771.794 1385.500 773.329 L 1377.500 774.863 1366 777.085 L 1354.500 779.306 1322 779.266 L 1289.500 779.227 1277.500 777.045 L 1265.500 774.863 1259.127 773.918 L 1252.754 772.973 1241.627 770.392 L 1230.500 767.811 1224.500 765.976 L 1218.500 764.142 1209.507 761.071 L 1200.513 758 1199.507 758.070 L 1198.500 758.139 1185.500 762.466" stroke="none" fill="#a57621" fill-rule="evenodd"/></svg>