<svg xmlns="http://www.w3.org/2000/svg" width="152" height="152" viewBox="0 0 152 152" version="1.1"><path d="M 13 76 L 13 139.015 75.750 138.758 L 138.500 138.500 138.500 76 L 138.500 13.500 75.750 13.242 L 13 12.985 13 76 M 64.105 30.583 C 29.736 39.825, 17.735 81.760, 41.894 108.193 C 66.474 135.088, 112.163 123.186, 121.467 87.465 C 130.328 53.444, 98.064 21.450, 64.105 30.583" stroke="none" fill="#ffffff" fill-rule="evenodd"/><path d="M -0 76.006 L -0 152.012 76.250 151.756 L 152.500 151.500 152.756 75.750 L 153.013 0 76.506 0 L 0 0 -0 76.006 M 0.475 76.500 C 0.475 118.300, 0.599 135.254, 0.750 114.176 C 0.901 93.098, 0.900 58.898, 0.750 38.176 C 0.599 17.454, 0.475 34.700, 0.475 76.500 M 13 76 L 13 139.015 75.750 138.758 L 138.500 138.500 138.500 76 L 138.500 13.500 75.750 13.242 L 13 12.985 13 76 M 64.105 30.583 C 29.736 39.825, 17.735 81.760, 41.894 108.193 C 66.474 135.088, 112.163 123.186, 121.467 87.465 C 130.328 53.444, 98.064 21.450, 64.105 30.583" stroke="none" fill="#fe0000" fill-rule="evenodd"/></svg>