<svg xmlns="http://www.w3.org/2000/svg" width="151" height="152" viewBox="0 0 151 152" version="1.1"><path d="M 12.462 14.242 C 12.198 14.934, 12.098 43.175, 12.241 77 L 12.500 138.500 75.258 138.758 L 138.015 139.015 137.758 76.258 L 137.500 13.500 75.222 13.242 C 25.930 13.039, 12.843 13.247, 12.462 14.242 M 63.105 30.583 C 28.161 39.979, 16.400 83.560, 41.920 109.080 C 67.782 134.942, 111.237 122.903, 120.508 87.307 C 129.350 53.362, 97.058 21.452, 63.105 30.583" stroke="none" fill="#f9f8f7" fill-rule="evenodd"/><path d="M 0 76.006 L 0 152.013 75.750 151.756 L 151.500 151.500 151.756 75.750 L 152.013 0 76.006 0 L 0 0 0 76.006 M 0.475 76.500 C 0.475 118.300, 0.599 135.254, 0.750 114.176 C 0.901 93.098, 0.900 58.898, 0.750 38.176 C 0.599 17.454, 0.475 34.700, 0.475 76.500 M 12.462 14.242 C 12.198 14.934, 12.098 43.175, 12.241 77 L 12.500 138.500 75.258 138.758 L 138.015 139.015 137.758 76.258 L 137.500 13.500 75.222 13.242 C 25.930 13.039, 12.843 13.247, 12.462 14.242 M 63.105 30.583 C 28.161 39.979, 16.400 83.560, 41.920 109.080 C 67.782 134.942, 111.237 122.903, 120.508 87.307 C 129.350 53.362, 97.058 21.452, 63.105 30.583" stroke="none" fill="#047c04" fill-rule="evenodd"/></svg>